<svg width="30" height="30" viewBox="0 0 30 30" fill="none" xmlns="http://www.w3.org/2000/svg">
<path d="M0 3C0 1.34315 1.34315 0 3 0H27C28.6569 0 30 1.34315 30 3V27C30 28.6569 28.6569 30 27 30H3C1.34315 30 0 28.6569 0 27V3Z" fill="white"/>
<path d="M15.3839 8.125C16.2553 7.76315 16.7238 6.92064 16.5119 6.09671C16.3001 5.27278 15.4645 4.6875 14.5 4.6875C13.5356 4.6875 12.7 5.27278 12.488 6.09671C12.2763 6.92064 12.7448 7.76315 13.6162 8.125H15.3839Z" fill="#F98AAB"/>
<path d="M12.1624 8.8125C12.0865 8.8125 12.0139 8.7794 11.9619 8.72092C10.8196 7.44293 10.7583 5.46537 11.8187 4.11084C11.8804 4.02802 11.9798 3.98694 12.0784 4.00369C12.1769 4.02043 12.2591 4.09226 12.2931 4.19143C12.3271 4.29061 12.3078 4.40142 12.2424 4.4811C11.3585 5.60994 11.4102 7.25832 12.3628 8.32279C12.4379 8.40718 12.4585 8.53081 12.4149 8.63731C12.3713 8.74368 12.2721 8.8125 12.1624 8.8125Z" fill="#F98AAB"/>
<path d="M17.2669 7.4375C17.1613 7.4375 17.0635 7.39302 17.0085 7.32017C16.9535 7.2472 16.9493 7.15647 16.9974 7.08053C17.5498 6.21095 17.4079 5.15869 16.6366 4.40589C16.5646 4.33867 16.5432 4.24518 16.5807 4.16151C16.6184 4.07784 16.709 4.01724 16.8176 4.00311C16.9262 3.98898 17.0358 4.02364 17.1039 4.09351C18.0295 4.9972 18.1998 6.26018 17.537 7.30416C17.4851 7.38617 17.3807 7.43761 17.2669 7.4375Z" fill="#F98AAB"/>
<path d="M19.9998 11.8648V16.2986C19.9998 16.2986 19.9998 17.8082 19.0812 18.6822C18.9771 18.7858 18.9194 18.9301 18.9222 19.0799V19.9397C18.9213 20.2487 18.6806 20.499 18.3833 20.5H14.0727C13.7754 20.499 13.5347 20.2487 13.5339 19.9397V19.8361C13.5343 19.3871 13.3604 18.9568 13.0516 18.643C12.5315 18.1164 11.7287 17.2061 11.3785 16.2986C10.8396 14.8981 9.762 12.9374 9.22319 12.3773C8.68437 11.8171 9.22319 11.2569 9.762 11.2569C10.3008 11.2569 11.3785 12.3773 11.9173 13.2176C12.0888 13.488 12.2895 13.737 12.5154 13.9598C12.6495 14.0894 12.8379 14.1391 13.0152 14.0914C13.1925 14.0438 13.3341 13.9055 13.391 13.7245C13.4936 13.3792 13.5419 13.0188 13.5339 12.6574V6.21532C13.5322 5.85928 13.7489 5.54156 14.0727 5.42544C14.1587 5.39153 14.25 5.37451 14.342 5.37501C14.7884 5.37501 15.1503 5.75123 15.1503 6.21532V9.57645C15.1486 9.22027 15.3653 8.90268 15.6891 8.78656C15.7752 8.75265 15.8666 8.7355 15.9586 8.73613C16.4049 8.73613 16.7668 9.11235 16.7668 9.57645V10.4166C16.7668 10.1939 16.8521 9.98015 17.0039 9.82293C17.0883 9.73379 17.1916 9.66659 17.3056 9.62688C17.3917 9.59296 17.483 9.57582 17.5751 9.57645C18.0215 9.57645 18.3833 9.95266 18.3833 10.4166V11.8171C18.3833 11.5943 18.4686 11.3806 18.6204 11.2234C18.7047 11.1343 18.8082 11.0671 18.9222 11.0272C19.0272 10.9871 19.1392 10.9709 19.2508 10.9797C19.6836 11.0277 20.0091 11.4123 19.9998 11.8648Z" fill="#F98AAB"/>
<path d="M14.515 5.39259C14.4202 5.39209 14.3261 5.40895 14.2376 5.44256C13.904 5.55761 13.6808 5.87241 13.6825 6.22519V12.6082C13.6908 12.9662 13.641 13.3234 13.5354 13.6656C13.4916 13.7941 13.4029 13.9025 13.2856 13.9709C13.4299 14.0556 13.6047 14.0703 13.7611 14.011C13.9176 13.9516 14.0387 13.8246 14.0904 13.6656C14.1961 13.3234 14.2458 12.9662 14.2376 12.6082V6.22519C14.2358 5.87241 14.459 5.55761 14.7926 5.44256C14.7039 5.40895 14.6098 5.39209 14.515 5.39259Z" fill="#F8EDF0"/>
<path d="M15.9032 8.77259C15.5696 8.88765 15.3464 9.20233 15.3482 9.55523V12.0529C15.3482 12.2062 15.4725 12.3304 15.6257 12.3304C15.7789 12.3304 15.9032 12.2062 15.9032 12.0529V9.55523C15.9016 9.20233 16.1247 8.88765 16.4582 8.77259C16.2792 8.70601 16.0822 8.70601 15.9032 8.77259Z" fill="#F8EDF0"/>
<path d="M17.5711 9.6056C17.4537 9.64495 17.3473 9.71154 17.2603 9.79986C17.1041 9.95563 17.0161 10.1674 17.0161 10.3881V12.0533C17.0161 12.2066 17.1404 12.3308 17.2937 12.3308C17.447 12.3308 17.5711 12.2066 17.5711 12.0533V10.3881C17.5695 10.0353 17.7928 9.72065 18.1263 9.6056C17.9473 9.53902 17.7503 9.53902 17.5711 9.6056Z" fill="#F8EDF0"/>
<path d="M19.5127 10.9429C19.418 10.9423 19.3238 10.9591 19.2352 10.9927C19.1178 11.0322 19.0112 11.0988 18.9244 11.1871C18.768 11.3429 18.6802 11.5546 18.6802 11.7754V12.3304C18.6802 12.4837 18.8043 12.608 18.9576 12.608C19.1109 12.608 19.2352 12.4837 19.2352 12.3304V11.7754C19.2335 11.4226 19.4567 11.1079 19.7902 10.9927C19.7015 10.9591 19.6075 10.9423 19.5127 10.9429Z" fill="#F8EDF0"/>
<path d="M18.9688 13.625C18.779 13.625 18.625 13.7405 18.625 13.8829V15.4296C18.625 15.572 18.779 15.6875 18.9688 15.6875C19.1587 15.6875 19.3125 15.572 19.3125 15.4296V13.8829C19.3125 13.7405 19.1587 13.625 18.9688 13.625Z" fill="#F8EDF0"/>
<path d="M19.09 16.375C18.967 16.3779 18.8657 16.5214 18.856 16.7061C18.839 16.8807 18.7818 17.0408 18.6947 17.1588C18.6353 17.2451 18.6116 17.373 18.6324 17.4931C18.6533 17.6134 18.7157 17.7074 18.7954 17.7388C18.8752 17.7702 18.9601 17.7345 19.0174 17.645C19.1911 17.4029 19.2967 17.0697 19.3125 16.714C19.3123 16.5284 19.2132 16.3775 19.09 16.375Z" fill="#F8EDF0"/>
<path d="M14.9583 19.125H14.7292C14.6026 19.125 14.5 19.2788 14.5 19.4687C14.5 19.6585 14.6026 19.8125 14.7292 19.8125H14.9583C15.0849 19.8125 15.1875 19.6585 15.1875 19.4687C15.1875 19.2788 15.0849 19.125 14.9583 19.125Z" fill="#F8EDF0"/>
<path d="M17.7084 19.125H16.1042C15.9776 19.125 15.875 19.2788 15.875 19.4687C15.875 19.6585 15.9776 19.8125 16.1042 19.8125H17.7084C17.835 19.8125 17.9375 19.6585 17.9375 19.4687C17.9375 19.2788 17.835 19.125 17.7084 19.125Z" fill="#F8EDF0"/>
</svg>
